<svg xmlns="http://www.w3.org/2000/svg" viewBox="0 0 64 64" fill="none">

  <circle cx="32" cy="32" r="29" stroke="#b8860b" stroke-width="2" fill="#2c1810"></circle>
  <circle cx="32" cy="32" r="25" stroke="#b8860b" stroke-width="0.8" fill="none" opacity="0.5"></circle>

  <path d="M 32 14
           C 24 18, 20 26, 22 34
           C 24 42, 28 46, 32 48
           C 36 46, 40 42, 42 34
           C 44 26, 40 18, 32 14 Z" fill="#6b8e4e" stroke="#b8860b" stroke-width="0.8"></path>

  <path d="M 32 14 L 32 48" stroke="#3d5a2a" stroke-width="1" opacity="0.8"></path>
  <path d="M 32 22 L 26 26 M 32 28 L 25 32 M 32 34 L 26 38 M 32 40 L 28 43" stroke="#3d5a2a" stroke-width="0.8" opacity="0.6"></path>
  <path d="M 32 22 L 38 26 M 32 28 L 39 32 M 32 34 L 38 38 M 32 40 L 36 43" stroke="#3d5a2a" stroke-width="0.8" opacity="0.6"></path>

  <circle cx="32" cy="10" r="1.5" fill="#b8860b"></circle>
</svg>
