<svg xmlns="http://www.w3.org/2000/svg" width="280" height="280" viewBox="0 0 280 280" fill="none">
  <g stroke="#3d5a2a" stroke-width="1.6" stroke-linecap="round" fill="none" opacity="0.85">
    <path d="M 0 40 Q 30 60, 60 50 T 130 70 Q 170 80, 200 110 T 250 180"></path>
    <path d="M 60 50 Q 70 30, 85 35 Q 95 38, 90 50"></path>
    <path d="M 130 70 Q 140 50, 158 55 Q 168 60, 162 75"></path>
    <path d="M 200 110 Q 220 100, 230 115"></path>
    <path d="M 100 60 Q 95 80, 75 90"></path>
    <path d="M 170 88 Q 175 110, 160 120"></path>
  </g>
  <g fill="#6b8e4e" stroke="#3d5a2a" stroke-width="1">
    <path d="M 30 30 Q 15 25, 10 10 Q 25 5, 40 15 Q 38 26, 30 30 Z" opacity="0.9"></path>
    <path d="M 75 90 Q 60 100, 50 92 Q 55 75, 70 78 Q 80 85, 75 90 Z" opacity="0.85"></path>
    <path d="M 160 120 Q 145 130, 135 120 Q 140 105, 155 108 Q 165 115, 160 120 Z" opacity="0.85"></path>
    <path d="M 110 50 Q 105 35, 115 28 Q 128 32, 125 48 Q 118 55, 110 50 Z" opacity="0.9"></path>
    <path d="M 195 90 Q 188 75, 200 68 Q 215 72, 212 88 Q 205 95, 195 90 Z" opacity="0.85"></path>
    <path d="M 230 115 Q 220 105, 232 95 Q 248 100, 248 115 Q 240 122, 230 115 Z" opacity="0.85"></path>
  </g>
  <g fill="#a9bf8c" stroke="#3d5a2a" stroke-width="0.8" opacity="0.8">
    <ellipse cx="55" cy="55" rx="4" ry="6" transform="rotate(-30 55 55)"></ellipse>
    <ellipse cx="148" cy="76" rx="4" ry="6" transform="rotate(40 148 76)"></ellipse>
    <ellipse cx="220" cy="155" rx="4" ry="6" transform="rotate(-20 220 155)"></ellipse>
  </g>
  <g fill="#8b1f3a" opacity="0.8">
    <circle cx="180" cy="100" r="3"></circle>
    <circle cx="184" cy="105" r="2.5"></circle>
    <circle cx="178" cy="106" r="2"></circle>
  </g>
</svg>
